<svg version="1.1" xmlns="http://www.w3.org/2000/svg" xmlns:xlink="http://www.w3.org/1999/xlink" width="512px" height="512px" viewBox="0,0,256,256"><g fill="#f9d1d8" fill-rule="nonzero" stroke="none" stroke-width="1" stroke-linecap="butt" stroke-linejoin="miter" stroke-miterlimit="10" stroke-dasharray="" stroke-dashoffset="0" font-family="none" font-weight="none" font-size="none" text-anchor="none" style="mix-blend-mode: normal"><g transform="scale(0.5,0.5)"><g><g><path d="M437.019,74.981c-48.352,-48.353 -112.64,-74.981 -181.019,-74.981c-68.379,0 -132.667,26.628 -181.019,74.981c-48.353,48.352 -74.981,112.64 -74.981,181.019c0,68.379 26.628,132.667 74.981,181.019c48.352,48.353 112.64,74.981 181.019,74.981c68.379,0 132.667,-26.628 181.019,-74.981c48.352,-48.353 74.981,-112.64 74.981,-181.019c0,-68.379 -26.628,-132.667 -74.981,-181.019zM256,495.832c-132.244,0 -239.832,-107.588 -239.832,-239.832c0,-132.244 107.588,-239.832 239.832,-239.832c132.244,0 239.832,107.588 239.832,239.832c0,132.244 -107.588,239.832 -239.832,239.832z"></path></g></g><g><g><path d="M400.989,98.637c-2.482,-1.87 -5.817,-2.15 -8.577,-0.722l-312.59,161.684c-2.702,1.397 -4.391,4.194 -4.371,7.236c0.02,3.042 1.747,5.815 4.469,7.176l81.764,40.88v81.006c0,2.12 0.721,4.218 2.18,5.757c1.614,1.703 3.759,2.557 5.905,2.557c1.352,0 2.704,-0.338 3.927,-1.018l93.544,-51.969l71.597,30.684c1.523,0.653 3.209,0.923 4.839,0.619c3.355,-0.627 5.849,-3.197 6.485,-6.372l18.115,-90.577c1,-5.003 -2.826,-9.67 -7.928,-9.67c-3.854,-0.002 -7.171,2.718 -7.927,6.496l-16.162,80.808l-66.295,-28.412c-2.297,-0.985 -4.923,-0.85 -7.111,0.363l-85,47.223v-72.492c0,-3.062 -1.73,-5.86 -4.469,-7.231l-72.015,-36.007l283.53,-146.654l-24.605,123.023c-1,5.003 2.826,9.67 7.928,9.67c3.853,0 7.171,-2.721 7.928,-6.499l27.903,-139.517c0.609,-3.046 -0.582,-6.173 -3.064,-8.042z"></path></g></g><g><g><path d="M348.576,164.757c-2.541,-3.216 -7.089,-4.024 -10.581,-1.873l-140.126,86.232c-2.391,1.471 -3.847,4.078 -3.847,6.885v86.232c-0.001,3.75 2.577,7.006 6.225,7.868c0.621,0.147 1.244,0.218 1.86,0.218c3.007,0 5.837,-1.686 7.228,-4.47l31.75,-63.5l106.863,-106.863c2.899,-2.9 3.169,-7.511 0.628,-10.729zM228.725,271.842c-0.613,0.614 -1.125,1.324 -1.513,2.101l-17.022,34.043v-47.468l77.636,-47.777z"></path></g></g><g font-family="Inter, apple-system, BlinkMacSystemFont, &quot;Helvetica Neue&quot;, &quot;Segoe UI&quot;, &quot;Fira Sans&quot;, Roboto, Oxygen, Ubuntu, &quot;Droid Sans&quot;, Arial, sans-serif" font-weight="400" font-size="16" text-anchor="start"></g><g font-family="Inter, apple-system, BlinkMacSystemFont, &quot;Helvetica Neue&quot;, &quot;Segoe UI&quot;, &quot;Fira Sans&quot;, Roboto, Oxygen, Ubuntu, &quot;Droid Sans&quot;, Arial, sans-serif" font-weight="400" font-size="16" text-anchor="start"></g><g font-family="Inter, apple-system, BlinkMacSystemFont, &quot;Helvetica Neue&quot;, &quot;Segoe UI&quot;, &quot;Fira Sans&quot;, Roboto, Oxygen, Ubuntu, &quot;Droid Sans&quot;, Arial, sans-serif" font-weight="400" font-size="16" text-anchor="start"></g><g font-family="Inter, apple-system, BlinkMacSystemFont, &quot;Helvetica Neue&quot;, &quot;Segoe UI&quot;, &quot;Fira Sans&quot;, Roboto, Oxygen, Ubuntu, &quot;Droid Sans&quot;, Arial, sans-serif" font-weight="400" font-size="16" text-anchor="start"></g><g font-family="Inter, apple-system, BlinkMacSystemFont, &quot;Helvetica Neue&quot;, &quot;Segoe UI&quot;, &quot;Fira Sans&quot;, Roboto, Oxygen, Ubuntu, &quot;Droid Sans&quot;, Arial, sans-serif" font-weight="400" font-size="16" text-anchor="start"></g><g font-family="Inter, apple-system, BlinkMacSystemFont, &quot;Helvetica Neue&quot;, &quot;Segoe UI&quot;, &quot;Fira Sans&quot;, Roboto, Oxygen, Ubuntu, &quot;Droid Sans&quot;, Arial, sans-serif" font-weight="400" font-size="16" text-anchor="start"></g><g font-family="Inter, apple-system, BlinkMacSystemFont, &quot;Helvetica Neue&quot;, &quot;Segoe UI&quot;, &quot;Fira Sans&quot;, Roboto, Oxygen, Ubuntu, &quot;Droid Sans&quot;, Arial, sans-serif" font-weight="400" font-size="16" text-anchor="start"></g><g font-family="Inter, apple-system, BlinkMacSystemFont, &quot;Helvetica Neue&quot;, &quot;Segoe UI&quot;, &quot;Fira Sans&quot;, Roboto, Oxygen, Ubuntu, &quot;Droid Sans&quot;, Arial, sans-serif" font-weight="400" font-size="16" text-anchor="start"></g><g font-family="Inter, apple-system, BlinkMacSystemFont, &quot;Helvetica Neue&quot;, &quot;Segoe UI&quot;, &quot;Fira Sans&quot;, Roboto, Oxygen, Ubuntu, &quot;Droid Sans&quot;, Arial, sans-serif" font-weight="400" font-size="16" text-anchor="start"></g><g font-family="Inter, apple-system, BlinkMacSystemFont, &quot;Helvetica Neue&quot;, &quot;Segoe UI&quot;, &quot;Fira Sans&quot;, Roboto, Oxygen, Ubuntu, &quot;Droid Sans&quot;, Arial, sans-serif" font-weight="400" font-size="16" text-anchor="start"></g><g font-family="Inter, apple-system, BlinkMacSystemFont, &quot;Helvetica Neue&quot;, &quot;Segoe UI&quot;, &quot;Fira Sans&quot;, Roboto, Oxygen, Ubuntu, &quot;Droid Sans&quot;, Arial, sans-serif" font-weight="400" font-size="16" text-anchor="start"></g><g font-family="Inter, apple-system, BlinkMacSystemFont, &quot;Helvetica Neue&quot;, &quot;Segoe UI&quot;, &quot;Fira Sans&quot;, Roboto, Oxygen, Ubuntu, &quot;Droid Sans&quot;, Arial, sans-serif" font-weight="400" font-size="16" text-anchor="start"></g><g font-family="Inter, apple-system, BlinkMacSystemFont, &quot;Helvetica Neue&quot;, &quot;Segoe UI&quot;, &quot;Fira Sans&quot;, Roboto, Oxygen, Ubuntu, &quot;Droid Sans&quot;, Arial, sans-serif" font-weight="400" font-size="16" text-anchor="start"></g><g font-family="Inter, apple-system, BlinkMacSystemFont, &quot;Helvetica Neue&quot;, &quot;Segoe UI&quot;, &quot;Fira Sans&quot;, Roboto, Oxygen, Ubuntu, &quot;Droid Sans&quot;, Arial, sans-serif" font-weight="400" font-size="16" text-anchor="start"></g><g font-family="Inter, apple-system, BlinkMacSystemFont, &quot;Helvetica Neue&quot;, &quot;Segoe UI&quot;, &quot;Fira Sans&quot;, Roboto, Oxygen, Ubuntu, &quot;Droid Sans&quot;, Arial, sans-serif" font-weight="400" font-size="16" text-anchor="start"></g></g></g></svg>