<svg version="1.1" xmlns="http://www.w3.org/2000/svg" xmlns:xlink="http://www.w3.org/1999/xlink" width="24px" height="24px" viewBox="0,0,256,256"><g fill="#a48b73" fill-rule="evenodd" stroke="none" stroke-width="1" stroke-linecap="butt" stroke-linejoin="miter" stroke-miterlimit="10" stroke-dasharray="" stroke-dashoffset="0" font-family="none" font-weight="none" font-size="none" text-anchor="none" style="mix-blend-mode: normal"><g transform="translate(5.33518,2.87139) scale(10.66667,10.66667)"><path d="M7.39256,2.55138c-0.24553,-0.12081 -0.54257,-0.02181 -0.66652,0.22216c-0.17639,0.34719 -0.23732,0.77123 -0.24548,1.17774c-0.00835,0.41561 0.0379,0.86093 0.11191,1.28209c0.07422,0.42239 0.1785,0.83252 0.29202,1.1806c0.05257,0.16118 0.10974,0.31726 0.17015,0.45913c-0.97303,0.92194 -1.52217,2.4646 -1.05905,3.9621c0.52388,1.694 2.27184,3.1441 5.67391,3.6592c0.2731,0.0413 0.5279,-0.1465 0.5692,-0.4195c0.0414,-0.2731 -0.1464,-0.5279 -0.4195,-0.5693c-3.20263,-0.4849 -4.50302,-1.7848 -4.86825,-2.9658c-0.37613,-1.21625 0.16502,-2.50211 1.02586,-3.13751c0.21388,-0.15787 0.26684,-0.4555 0.12054,-0.67746c-0.0627,-0.09512 -0.15987,-0.30735 -0.26214,-0.62092c-0.09873,-0.30272 -0.19166,-0.66705 -0.25783,-1.04361c-0.06638,-0.37778 -0.10371,-0.75588 -0.09702,-1.08894c0.00178,-0.08882 0.00665,-0.17142 0.01425,-0.24772c0.353,0.18409 0.72055,0.3877 1.06802,0.60344c0.53857,0.33439 0.99678,0.67849 1.28197,1.003c0.14915,0.16971 0.3936,0.21831 0.5963,0.11855c0.9348,-0.45995 2.1265,-0.69863 3.2722,-0.69863c1.1546,0 2.1881,0.24195 2.8375,0.66806c0.1197,0.07853 0.2674,0.10199 0.4055,0.06442c0.1382,-0.03757 0.2536,-0.13255 0.317,-0.2609c0.1377,-0.27844 0.5043,-0.61008 1.0056,-0.95574c0.2968,-0.20472 0.5894,-0.3818 0.8566,-0.54166c0.0039,0.02454 0.0077,0.05052 0.0112,0.07801c0.0354,0.27811 0.0343,0.62748 0.0081,1.01172c-0.047,0.68951 -0.1689,1.42134 -0.255,1.93771c-0.0098,0.05859 -0.0191,0.11442 -0.0277,0.16709c-0.0162,0.09797 -0.0028,0.19853 0.0384,0.28887c0.4854,1.0636 0.8007,2.28877 0.4216,3.39132c-0.3676,1.0688 -1.4515,2.191 -4.1608,2.9182c-0.1816,0.0487 -0.3205,0.1952 -0.3595,0.3791c-0.039,0.184 0.0285,0.3742 0.1746,0.4925c0.7617,0.6163 2.0504,2.1527 2.9497,3.9267c0.226,0.4459 0.1252,0.8385 -0.1462,1.1214c-0.2874,0.2995 -0.7863,0.4874 -1.3454,0.3884c-1.0095,-0.1786 -2.148,-0.3252 -3.1758,-0.3252c-1.2374,0 -2.852,0.2132 -4.22373,0.4395c-0.54916,0.0907 -1.01,-0.1051 -1.25966,-0.3936c-0.23439,-0.271 -0.31342,-0.6519 -0.0609,-1.0823c0.511,-0.8708 1.12797,-1.6347 1.75416,-2.0455c0.11504,-0.0755 0.19389,-0.1951 0.21799,-0.3305c0.0241,-0.1355 -0.0087,-0.2749 -0.09065,-0.3854c-0.16737,-0.2257 -0.55195,-0.627 -1.17176,-0.8529c-0.6366,-0.2321 -1.47105,-0.2603 -2.48321,0.1947c-0.48227,0.2167 -0.87956,0.2456 -1.19364,0.1815c-0.31577,-0.0643 -0.58225,-0.2296 -0.79058,-0.4574c-0.43813,-0.4789 -0.56207,-1.1597 -0.39416,-1.5842c0.10155,-0.2568 -0.02429,-0.5473 -0.28108,-0.6489c-0.25679,-0.1015 -0.54728,0.0243 -0.64884,0.2811c-0.33341,0.8431 -0.06115,1.9193 0.58624,2.627c0.33442,0.3656 0.78303,0.651 1.32865,0.7623c0.54731,0.1116 1.15771,0.0409 1.80341,-0.2494c0.79261,-0.3562 1.357,-0.3035 1.73071,-0.1672c0.13217,0.0482 0.24678,0.1092 0.3438,0.1732c-0.60847,0.5362 -1.14393,1.2634 -1.57353,1.9956c-0.47309,0.8062 -0.34282,1.6531 0.16714,2.2425c0.49469,0.5718 1.31327,0.8689 2.17873,0.7261c1.36401,-0.2251 2.91041,-0.4262 4.06091,-0.4262c0.9443,0 2.0179,0.1359 3.0015,0.3099c0.8681,0.1536 1.7093,-0.1263 2.2413,-0.6808c0.548,-0.5712 0.7459,-1.4189 0.3166,-2.2659c-0.7375,-1.4547 -1.7286,-2.7782 -2.5521,-3.6351c2.3229,-0.7842 3.537,-1.9526 4.0017,-3.3041c0.4859,-1.41292 0.0948,-2.87337 -0.3944,-3.99057c0.001,-0.00554 0.0019,-0.01111 0.0028,-0.01671c0.0855,-0.51187 0.2159,-1.29307 0.2664,-2.03484c0.0281,-0.41295 0.0333,-0.83541 -0.0138,-1.20589c-0.0443,-0.34823 -0.1461,-0.7528 -0.4177,-1.02753c-0.1652,-0.167 -0.4242,-0.19658 -0.6228,-0.0711c-0.093,0.05881 -0.2151,0.13191 -0.3545,0.21542c-0.3021,0.18092 -0.6858,0.41069 -1.0326,0.64984c-0.3576,0.24665 -0.7497,0.54985 -1.0408,0.89673c-0.8311,-0.40457 -1.892,-0.58935 -2.957,-0.58935c-1.1422,0 -2.35,0.21215 -3.3807,0.64916c-0.35476,-0.3335 -0.79648,-0.64486 -1.24229,-0.92165c-0.57152,-0.35485 -1.18301,-0.67294 -1.69755,-0.92613z"></path></g></g></svg>